_states
version=1
nRows=4
nColumns=199
inDegrees=yes

# SIMM Motion File Header:
name _states
datacolumns 199
datarows 4
otherdata 1
range 0.00000004 0.00000007
endheader
time	/jointset/ground_thorax/thorax_rot1/value	/jointset/ground_thorax/thorax_rot1/speed	/jointset/ground_thorax/thorax_rot2/value	/jointset/ground_thorax/thorax_rot2/speed	/jointset/ground_thorax/thorax_rot3/value	/jointset/ground_thorax/thorax_rot3/speed	/jointset/sternoclavicular/sternoclavicular_r2/value	/jointset/sternoclavicular/sternoclavicular_r2/speed	/jointset/sternoclavicular/sternoclavicular_r3/value	/jointset/sternoclavicular/sternoclavicular_r3/speed	/jointset/unrotscap/unrotscap_r3/value	/jointset/unrotscap/unrotscap_r3/speed	/jointset/unrotscap/unrotscap_r2/value	/jointset/unrotscap/unrotscap_r2/speed	/jointset/acromioclavicular/acromioclavicular_r2/value	/jointset/acromioclavicular/acromioclavicular_r2/speed	/jointset/acromioclavicular/acromioclavicular_r3/value	/jointset/acromioclavicular/acromioclavicular_r3/speed	/jointset/acromioclavicular/acromioclavicular_r1/value	/jointset/acromioclavicular/acromioclavicular_r1/speed	/jointset/unrothum/unrothum_r1/value	/jointset/unrothum/unrothum_r1/speed	/jointset/unrothum/unrothum_r3/value	/jointset/unrothum/unrothum_r3/speed	/jointset/unrothum/unrothum_r2/value	/jointset/unrothum/unrothum_r2/speed	/jointset/shoulder0/elv_angle/value	/jointset/shoulder0/elv_angle/speed	/jointset/shoulder1/shoulder_ab_ad/value	/jointset/shoulder1/shoulder_ab_ad/speed	/jointset/shoulder1/shoulder1_r2/value	/jointset/shoulder1/shoulder1_r2/speed	/jointset/shoulder2/shoulder_ext_int/value	/jointset/shoulder2/shoulder_ext_int/speed	/jointset/phys_joint/ra_sh_ad_ab/value	/jointset/phys_joint/ra_sh_ad_ab/speed	/jointset/phys_joint/ra_sh_e_f/value	/jointset/phys_joint/ra_sh_e_f/speed	/jointset/phys_joint/ra_sh_ext_int/value	/jointset/phys_joint/ra_sh_ext_int/speed	/jointset/RA1H_RA2U/elbow_flexion/value	/jointset/RA1H_RA2U/elbow_flexion/speed	/jointset/RA1H_RA2U/ra_el_e_f/value	/jointset/RA1H_RA2U/ra_el_e_f/speed	/jointset/RA2U_RA2R/ra_wr_s_p/value	/jointset/RA2U_RA2R/ra_wr_s_p/speed	/jointset/RA2R_RA3M/ra_wr_e_f/value	/jointset/RA2R_RA3M/ra_wr_e_f/speed	/jointset/RA2R_RA3M/ra_wr_ad_ab/value	/jointset/RA2R_RA3M/ra_wr_ad_ab/speed	/jointset/RA3M_RA4P1/ra_cmc1_ad_ab/value	/jointset/RA3M_RA4P1/ra_cmc1_ad_ab/speed	/jointset/RA3M_RA4P1/ra_cmc1_f_e/value	/jointset/RA3M_RA4P1/ra_cmc1_f_e/speed	/jointset/RA4P1_RA5C1/ra_mcp1_f_e/value	/jointset/RA4P1_RA5C1/ra_mcp1_f_e/speed	/jointset/RA5C1_RA6D1/ra_ip1_f_e/value	/jointset/RA5C1_RA6D1/ra_ip1_f_e/speed	/jointset/RA3M_RA4P2/ra_mcp2_e_f/value	/jointset/RA3M_RA4P2/ra_mcp2_e_f/speed	/jointset/RA3M_RA4P2/ra_mcp2_ab_ad/value	/jointset/RA3M_RA4P2/ra_mcp2_ab_ad/speed	/jointset/RA4P2_RA5C2/ra_pip2_e_f/value	/jointset/RA4P2_RA5C2/ra_pip2_e_f/speed	/jointset/RA5C2_RA6D2/ra_dip2_e_f/value	/jointset/RA5C2_RA6D2/ra_dip2_e_f/speed	/jointset/RA3M_RA4P3/ra_mcp3_e_f/value	/jointset/RA3M_RA4P3/ra_mcp3_e_f/speed	/jointset/RA3M_RA4P3/ra_mcp3_ab_ad/value	/jointset/RA3M_RA4P3/ra_mcp3_ab_ad/speed	/jointset/RA4P3_RA5C3/ra_pip3_e_f/value	/jointset/RA4P3_RA5C3/ra_pip3_e_f/speed	/jointset/RA5C3_RA6D3/ra_dip3_e_f/value	/jointset/RA5C3_RA6D3/ra_dip3_e_f/speed	/jointset/RA3M_RA4P4/ra_mcp4_e_f/value	/jointset/RA3M_RA4P4/ra_mcp4_e_f/speed	/jointset/RA3M_RA4P4/ra_mcp4_ab_ad/value	/jointset/RA3M_RA4P4/ra_mcp4_ab_ad/speed	/jointset/RA4P4_RA5C4/ra_pip4_e_f/value	/jointset/RA4P4_RA5C4/ra_pip4_e_f/speed	/jointset/RA5C4_RA6D4/ra_dip4_e_f/value	/jointset/RA5C4_RA6D4/ra_dip4_e_f/speed	/jointset/RA3M_RA4P5/ra_mcp5_e_f/value	/jointset/RA3M_RA4P5/ra_mcp5_e_f/speed	/jointset/RA3M_RA4P5/ra_mcp5_ab_ad/value	/jointset/RA3M_RA4P5/ra_mcp5_ab_ad/speed	/jointset/RA4P5_RA5C5/ra_pip5_e_f/value	/jointset/RA4P5_RA5C5/ra_pip5_e_f/speed	/jointset/RA5C5_RA6D5/ra_dip5_e_f/value	/jointset/RA5C5_RA6D5/ra_dip5_e_f/speed	/forceset/DELT_A/activation	/forceset/DELT_A/fiber_length	/forceset/DELT_LAT/activation	/forceset/DELT_LAT/fiber_length	/forceset/DELT_P/activation	/forceset/DELT_P/fiber_length	/forceset/SUPSP/activation	/forceset/SUPSP/fiber_length	/forceset/INFSP/activation	/forceset/INFSP/fiber_length	/forceset/SUBSC/activation	/forceset/SUBSC/fiber_length	/forceset/TERMI/activation	/forceset/TERMI/fiber_length	/forceset/TERMA/activation	/forceset/TERMA/fiber_length	/forceset/PECM_R/activation	/forceset/PECM_R/fiber_length	/forceset/PECM_M/activation	/forceset/PECM_M/fiber_length	/forceset/PECM_C/activation	/forceset/PECM_C/fiber_length	/forceset/LATD_R/activation	/forceset/LATD_R/fiber_length	/forceset/LATD_M/activation	/forceset/LATD_M/fiber_length	/forceset/LATD_C/activation	/forceset/LATD_C/fiber_length	/forceset/CORBR/activation	/forceset/CORBR/fiber_length	/forceset/TRI_LO/activation	/forceset/TRI_LO/fiber_length	/forceset/TRI_LAT/activation	/forceset/TRI_LAT/fiber_length	/forceset/TRI_M/activation	/forceset/TRI_M/fiber_length	/forceset/ANC/activation	/forceset/ANC/fiber_length	/forceset/SUP/activation	/forceset/SUP/fiber_length	/forceset/BIC_LO/activation	/forceset/BIC_LO/fiber_length	/forceset/BIC_SH/activation	/forceset/BIC_SH/fiber_length	/forceset/BR/activation	/forceset/BR/fiber_length	/forceset/BRR/activation	/forceset/BRR/fiber_length	/forceset/ECR_LO/activation	/forceset/ECR_LO/fiber_length	/forceset/ECR_BR/activation	/forceset/ECR_BR/fiber_length	/forceset/ECU/activation	/forceset/ECU/fiber_length	/forceset/FCR/activation	/forceset/FCR/fiber_length	/forceset/FCU/activation	/forceset/FCU/fiber_length	/forceset/PL/activation	/forceset/PL/fiber_length	/forceset/PT/activation	/forceset/PT/fiber_length	/forceset/PQ/activation	/forceset/PQ/fiber_length	/forceset/FDS5/activation	/forceset/FDS5/fiber_length	/forceset/FDS4/activation	/forceset/FDS4/fiber_length	/forceset/FDS3/activation	/forceset/FDS3/fiber_length	/forceset/FDS2/activation	/forceset/FDS2/fiber_length	/forceset/FDP5/activation	/forceset/FDP5/fiber_length	/forceset/FDP4/activation	/forceset/FDP4/fiber_length	/forceset/FDP3/activation	/forceset/FDP3/fiber_length	/forceset/FDP2/activation	/forceset/FDP2/fiber_length	/forceset/ED5/activation	/forceset/ED5/fiber_length	/forceset/ED4/activation	/forceset/ED4/fiber_length	/forceset/ED3/activation	/forceset/ED3/fiber_length	/forceset/ED2/activation	/forceset/ED2/fiber_length	/forceset/EDM/activation	/forceset/EDM/fiber_length	/forceset/EIND/activation	/forceset/EIND/fiber_length	/forceset/EPL/activation	/forceset/EPL/fiber_length	/forceset/EPB/activation	/forceset/EPB/fiber_length	/forceset/FPL/activation	/forceset/FPL/fiber_length	/forceset/FPB/activation	/forceset/FPB/fiber_length	/forceset/OP/activation	/forceset/OP/fiber_length	/forceset/APL/activation	/forceset/APL/fiber_length	/forceset/APB/activation	/forceset/APB/fiber_length	/forceset/ADPT/activation	/forceset/ADPT/fiber_length
      0.00000004	     -0.00000000	     -0.00091538	     -0.00000000	     -0.01158377	      0.00000000	      0.02794788	     -0.00000002	     -0.79571351	      0.00000001	      0.76731357	     -0.00000001	     -0.73961649	      0.00000002	      0.80661236	     -0.00000002	     -1.15616900	      0.00000001	      0.72447949	      0.00000006	      2.95672288	     -0.00000006	     -2.95287819	     -0.00000001	     -0.72064630	      0.00000002	      1.15532958	      0.00000000	      0.00000000	     -0.00000000	     -0.00000000	     -0.00000000	     -0.00000000	     -0.00000000	     -0.04776255	     -0.00000001	     -0.21103590	     -0.00000001	      0.04557045	      0.00000001	      0.43110498	     -0.00000134	     -9.46981824	     90.00000018	      8.90835775	     -9.25200001	     -0.69845895	     -0.00000000	     -0.06017921	      0.00000002	      0.89146817	     20.00000005	     -0.01815058	     22.91831181	     -0.04263009	    -15.88200035	     -0.12705757	     -0.05087522	     -0.29474868	      0.01691022	      0.13419316	     -0.00000001	     -0.55265606	      0.00880791	      0.05256371	      0.03736630	     -0.23807061	      0.02613916	      0.16900127	     -0.00000001	     -0.54795869	      0.01852223	     -0.23143312	      0.00884272	      0.92469835	      0.00884324	      0.15460545	     -0.00000001	     -0.52010094	      0.00880841	     -0.11141194	      0.00884324	      0.04685393	      0.00884324	      0.10832928	     -0.00000001	     -0.46813413	      0.00880842	      0.00585706	      0.00884324	     -0.04244885	      0.04999997	      0.10000162	      0.04999997	      0.09999999	      0.04999997	      0.10001223	      0.04999997	      0.09999989	      0.04999997	      0.09999995	      0.04999997	      0.10000068	      0.04999997	      0.09999994	      0.04999997	      0.10002620	      0.04999997	      0.10016751	      0.04999997	      0.09999999	      0.04999997	      0.09999999	      0.04999997	      0.11287592	      0.04999997	      0.10321833	      0.04999997	      0.12389607	      0.04999997	      0.09999999	      0.04999997	      0.10000778	      0.04999997	      0.10000044	      0.04999997	      0.09999999	      0.04999997	      0.09999927	      0.04999997	      0.09999937	      0.04999997	      0.10000008	      0.04999997	      0.10000018	      0.04999997	      0.09999999	      0.04999997	      0.10000618	      0.04999997	      0.09999998	      0.04999997	      0.10000008	      0.04999997	      0.09999982	      0.04999997	      0.09999983	      0.04999997	      0.09999964	      0.04999997	      0.09999984	      0.04999997	      0.09999962	      0.04999997	      0.09999929	      0.04999997	      0.09999965	      0.04999997	      0.09999994	      0.04999997	      0.09999995	      0.04999997	      0.10000002	      0.04999997	      0.09999995	      0.04999997	      0.10000001	      0.04999997	      0.10000006	      0.04999997	      0.09999995	      0.04999997	      0.09999986	      0.04999997	      0.09999982	      0.04999997	      0.09999993	      0.04999997	      0.09999991	      0.04999997	      0.09999989	      0.04999997	      0.09999977	      0.04999997	      0.09999969	      0.04999997	      0.09999989	      0.04999997	      0.09999971	      0.04999997	      0.09999971	      0.04999997	      0.09999971	      0.04999997	      0.09999992	      0.04999997	      0.09999971	      0.04999997	      0.09999971
      0.00000005	     -0.00000000	     -0.00114377	     -0.00000000	     -0.01446745	      0.00000000	      0.03490855	     -0.00000003	     -0.99415190	      0.00000002	      0.95848612	     -0.00000002	     -0.92389088	      0.00000002	      1.00776379	     -0.00000004	     -1.44466320	      0.00000002	      0.90549025	      0.00000009	      3.69385557	     -0.00000009	     -3.68905319	     -0.00000002	     -0.90070224	      0.00000004	      1.44361469	      0.00000000	      0.00000000	     -0.00000000	     -0.00000000	     -0.00000000	     -0.00000000	     -0.00000000	     -0.06073311	     -0.00000001	     -0.26361456	     -0.00000001	      0.05694851	      0.00000001	      0.53933799	     -0.00000144	    -11.82125648	     90.00000028	     11.12005950	     -9.25200002	     -0.87206173	     -0.00000000	     -0.07536858	      0.00000003	      1.11348913	     20.00000005	     -0.02261619	     22.91831181	     -0.05322034	    -15.88200035	     -0.15874757	     -0.05087522	     -0.36814355	      0.01691022	      0.16785048	     -0.00000002	     -0.69031817	      0.00880791	      0.06566166	      0.03736629	     -0.29757102	      0.02613916	      0.21138109	     -0.00000002	     -0.68444983	      0.01852223	     -0.28936093	      0.00884273	      1.15590178	      0.00884324	      0.19339776	     -0.00000002	     -0.64965388	      0.00880841	     -0.13935432	      0.00884324	      0.05860471	      0.00884324	      0.13559928	     -0.00000001	     -0.58474394	      0.00880842	      0.00711400	      0.00884323	     -0.05294065	      0.04999996	      0.10000203	      0.04999996	      0.09999999	      0.04999996	      0.10001529	      0.04999996	      0.09999987	      0.04999996	      0.09999994	      0.04999996	      0.10000086	      0.04999996	      0.09999993	      0.04999996	      0.10003275	      0.04999996	      0.10020919	      0.04999996	      0.09999999	      0.04999996	      0.09999999	      0.04999996	      0.11289445	      0.04999996	      0.10322070	      0.04999996	      0.12390521	      0.04999996	      0.09999999	      0.04999996	      0.10000972	      0.04999996	      0.10000055	      0.04999996	      0.09999999	      0.04999996	      0.09999909	      0.04999996	      0.09999921	      0.04999996	      0.10000010	      0.04999996	      0.10000023	      0.04999996	      0.09999999	      0.04999996	      0.10000772	      0.04999996	      0.09999997	      0.04999996	      0.10000010	      0.04999996	      0.09999978	      0.04999996	      0.09999978	      0.04999996	      0.09999955	      0.04999996	      0.09999980	      0.04999996	      0.09999952	      0.04999996	      0.09999912	      0.04999996	      0.09999956	      0.04999996	      0.09999993	      0.04999996	      0.09999994	      0.04999996	      0.10000003	      0.04999996	      0.09999994	      0.04999996	      0.10000002	      0.04999996	      0.10000007	      0.04999996	      0.09999994	      0.04999996	      0.09999982	      0.04999996	      0.09999978	      0.04999996	      0.09999992	      0.04999996	      0.09999989	      0.04999996	      0.09999986	      0.04999996	      0.09999971	      0.04999996	      0.09999961	      0.04999996	      0.09999986	      0.04999996	      0.09999964	      0.04999996	      0.09999964	      0.04999996	      0.09999964	      0.04999996	      0.09999990	      0.04999996	      0.09999964	      0.04999996	      0.09999964
      0.00000006	     -0.00000000	     -0.00137197	     -0.00000000	     -0.01734625	      0.00000000	      0.04185875	     -0.00000004	     -1.19239510	      0.00000003	      1.14939735	     -0.00000003	     -1.10791435	      0.00000004	      1.20871540	     -0.00000005	     -1.73293923	      0.00000003	      1.08645757	      0.00000013	      4.43017235	     -0.00000013	     -4.42441366	     -0.00000003	     -1.08071611	      0.00000005	      1.73168193	      0.00000000	      0.00000000	     -0.00000000	     -0.00000000	     -0.00000000	     -0.00000000	     -0.00000000	     -0.07221291	     -0.00000001	     -0.31613053	     -0.00000000	      0.06824018	      0.00000002	      0.64585361	     -0.00000157	    -14.16631342	     90.00000040	     13.32563042	     -9.25200003	     -1.04526132	     -0.00000000	     -0.09061553	      0.00000004	      1.33517295	     20.00000005	     -0.02705311	     22.91831181	     -0.06378378	    -15.88200036	     -0.19040792	     -0.05087523	     -0.44142195	      0.01691023	      0.20155121	     -0.00000002	     -0.82778030	      0.00880791	      0.07874251	      0.03736629	     -0.35706456	      0.02613916	      0.25381250	     -0.00000002	     -0.82074233	      0.01852223	     -0.34731643	      0.00884275	      1.38711670	      0.00884324	      0.23224622	     -0.00000002	     -0.77901863	      0.00880841	     -0.16733231	      0.00884324	      0.07037036	      0.00884324	      0.16294406	     -0.00000002	     -0.70118492	      0.00880842	      0.00828833	      0.00884323	     -0.06338448	      0.04999996	      0.10000243	      0.04999996	      0.09999999	      0.04999996	      0.10001834	      0.04999996	      0.09999984	      0.04999996	      0.09999993	      0.04999996	      0.10000103	      0.04999996	      0.09999992	      0.04999996	      0.10003929	      0.04999996	      0.10025080	      0.04999996	      0.09999998	      0.04999996	      0.09999998	      0.04999996	      0.11291293	      0.04999996	      0.10322307	      0.04999996	      0.12391435	      0.04999996	      0.09999998	      0.04999996	      0.10001167	      0.04999996	      0.10000066	      0.04999996	      0.09999999	      0.04999996	      0.09999891	      0.04999996	      0.09999905	      0.04999996	      0.10000012	      0.04999996	      0.10000027	      0.04999996	      0.09999999	      0.04999996	      0.10000926	      0.04999996	      0.09999997	      0.04999996	      0.10000012	      0.04999996	      0.09999974	      0.04999996	      0.09999974	      0.04999996	      0.09999946	      0.04999996	      0.09999976	      0.04999996	      0.09999942	      0.04999996	      0.09999894	      0.04999996	      0.09999948	      0.04999996	      0.09999991	      0.04999996	      0.09999992	      0.04999996	      0.10000004	      0.04999996	      0.09999992	      0.04999996	      0.10000002	      0.04999996	      0.10000009	      0.04999996	      0.09999992	      0.04999996	      0.09999978	      0.04999996	      0.09999973	      0.04999996	      0.09999990	      0.04999996	      0.09999987	      0.04999996	      0.09999983	      0.04999996	      0.09999965	      0.04999996	      0.09999954	      0.04999996	      0.09999983	      0.04999996	      0.09999956	      0.04999996	      0.09999956	      0.04999996	      0.09999956	      0.04999996	      0.09999989	      0.04999996	      0.09999956	      0.04999996	      0.09999956
      0.00000007	     -0.00000000	     -0.00159999	     -0.00000000	     -0.02022017	      0.00000000	      0.04879849	     -0.00000005	     -1.39044353	      0.00000005	      1.34004779	     -0.00000005	     -1.29168740	      0.00000005	      1.40946759	     -0.00000007	     -2.02099759	      0.00000004	      1.26738154	      0.00000018	      5.16567485	     -0.00000018	     -5.15896124	     -0.00000004	     -1.26068802	      0.00000007	      2.01953180	      0.00000000	      0.00000000	     -0.00000000	      0.00000000	     -0.00000000	     -0.00000000	     -0.00000000	     -0.08395102	     -0.00000002	     -0.36857553	     -0.00000000	      0.07951967	      0.00000003	      0.75239976	     -0.00000173	    -16.50500162	     90.00000055	     15.52508256	     -9.25200004	     -1.21805852	     -0.00000000	     -0.10591996	      0.00000005	      1.55652031	     20.00000005	     -0.03146140	     22.91831180	     -0.07432045	    -15.88200036	     -0.22203869	     -0.05087523	     -0.51458410	      0.01691023	      0.23529526	     -0.00000003	     -0.96504283	      0.00880791	      0.09180631	      0.03736629	     -0.41655125	      0.02613916	      0.29629537	     -0.00000003	     -0.95683657	      0.01852222	     -0.40529957	      0.00884276	      1.61834307	      0.00884325	      0.27115071	     -0.00000003	     -0.90819555	      0.00880841	     -0.19534585	      0.00884324	      0.08215084	      0.00884324	      0.19036346	     -0.00000003	     -0.81745740	      0.00880842	      0.00938021	      0.00884323	     -0.07378043	      0.04999995	      0.10000284	      0.04999995	      0.09999998	      0.04999995	      0.10002140	      0.04999995	      0.09999982	      0.04999995	      0.09999992	      0.04999995	      0.10000120	      0.04999995	      0.09999990	      0.04999995	      0.10004584	      0.04999995	      0.10029233	      0.04999995	      0.09999998	      0.04999995	      0.09999998	      0.04999995	      0.11293138	      0.04999995	      0.10322545	      0.04999995	      0.12392348	      0.04999995	      0.09999998	      0.04999995	      0.10001361	      0.04999995	      0.10000077	      0.04999995	      0.09999998	      0.04999995	      0.09999873	      0.04999995	      0.09999889	      0.04999995	      0.10000014	      0.04999995	      0.10000032	      0.04999995	      0.09999998	      0.04999995	      0.10001081	      0.04999995	      0.09999996	      0.04999995	      0.10000013	      0.04999995	      0.09999969	      0.04999995	      0.09999969	      0.04999995	      0.09999937	      0.04999995	      0.09999972	      0.04999995	      0.09999933	      0.04999995	      0.09999876	      0.04999995	      0.09999939	      0.04999995	      0.09999990	      0.04999995	      0.09999991	      0.04999995	      0.10000004	      0.04999995	      0.09999991	      0.04999995	      0.10000002	      0.04999995	      0.10000010	      0.04999995	      0.09999991	      0.04999995	      0.09999975	      0.04999995	      0.09999969	      0.04999995	      0.09999988	      0.04999995	      0.09999985	      0.04999995	      0.09999980	      0.04999995	      0.09999959	      0.04999995	      0.09999946	      0.04999995	      0.09999980	      0.04999995	      0.09999949	      0.04999995	      0.09999949	      0.04999995	      0.09999949	      0.04999995	      0.09999987	      0.04999995	      0.09999949	      0.04999995	      0.09999949
